<svg viewBox="0 0 1200 700" xmlns="http://www.w3.org/2000/svg" role="img" aria-label="Mesa arcana de RPG com mapa de campanha medieval">
  <defs>
    <linearGradient id="bg-night" x1="0" y1="0" x2="1" y2="1">
      <stop offset="0%" stop-color="#0f131c"/>
      <stop offset="56%" stop-color="#1b1326"/>
      <stop offset="100%" stop-color="#261336"/>
    </linearGradient>

    <linearGradient id="desk-frame" x1="0" y1="0" x2="1" y2="1">
      <stop offset="0%" stop-color="#2c1f14"/>
      <stop offset="100%" stop-color="#161a24"/>
    </linearGradient>

    <linearGradient id="desk-surface" x1="0" y1="0" x2="1" y2="1">
      <stop offset="0%" stop-color="#1c2432"/>
      <stop offset="100%" stop-color="#101722"/>
    </linearGradient>

    <linearGradient id="map-base" x1="0" y1="0" x2="1" y2="1">
      <stop offset="0%" stop-color="#cab07c"/>
      <stop offset="100%" stop-color="#a08455"/>
    </linearGradient>

    <linearGradient id="water" x1="0" y1="0" x2="0" y2="1">
      <stop offset="0%" stop-color="#3f93d8"/>
      <stop offset="100%" stop-color="#224f87"/>
    </linearGradient>

    <linearGradient id="forest" x1="0" y1="0" x2="0" y2="1">
      <stop offset="0%" stop-color="#54a86a"/>
      <stop offset="100%" stop-color="#2f7045"/>
    </linearGradient>

    <linearGradient id="mountain" x1="0" y1="0" x2="0" y2="1">
      <stop offset="0%" stop-color="#c5d0dc"/>
      <stop offset="100%" stop-color="#667386"/>
    </linearGradient>

    <linearGradient id="desert" x1="0" y1="0" x2="0" y2="1">
      <stop offset="0%" stop-color="#efc37a"/>
      <stop offset="100%" stop-color="#bf8c46"/>
    </linearGradient>

    <radialGradient id="arcane-aura" cx="55%" cy="40%" r="55%">
      <stop offset="0%" stop-color="#8655d4" stop-opacity="0.56"/>
      <stop offset="70%" stop-color="#3a204f" stop-opacity="0.08"/>
      <stop offset="100%" stop-color="#000000" stop-opacity="0"/>
    </radialGradient>

    <linearGradient id="flame" x1="0" y1="1" x2="0" y2="0">
      <stop offset="0%" stop-color="#f59e0b"/>
      <stop offset="100%" stop-color="#ffe0a8"/>
    </linearGradient>

    <filter id="soft-glow" x="-40%" y="-40%" width="180%" height="180%">
      <feGaussianBlur stdDeviation="8" result="blur"/>
      <feMerge>
        <feMergeNode in="blur"/>
        <feMergeNode in="SourceGraphic"/>
      </feMerge>
    </filter>

    <filter id="panel-shadow" x="-10%" y="-10%" width="130%" height="130%">
      <feDropShadow dx="0" dy="12" stdDeviation="12" flood-color="#000000" flood-opacity="0.35"/>
    </filter>

    <pattern id="runes" width="86" height="86" patternUnits="userSpaceOnUse">
      <path d="M43 12L57 26L43 40L29 26Z" fill="none" stroke="#f59e0b" stroke-opacity="0.12" stroke-width="1.6"/>
      <path d="M18 58H34M52 58H68" stroke="#f59e0b" stroke-opacity="0.09" stroke-width="1.6" stroke-linecap="round"/>
      <path d="M18 18L28 28M68 18L58 28" stroke="#7b5ea7" stroke-opacity="0.12" stroke-width="1.6" stroke-linecap="round"/>
    </pattern>
  </defs>

  <rect width="1200" height="700" fill="url(#bg-night)"/>
  <rect width="1200" height="700" fill="url(#runes)"/>
  <rect width="1200" height="700" fill="url(#arcane-aura)"/>

  <g opacity="0.45">
    <circle cx="170" cy="100" r="2" fill="#ffd28d"/>
    <circle cx="210" cy="76" r="1.5" fill="#ffffff"/>
    <circle cx="327" cy="122" r="2" fill="#ffd28d"/>
    <circle cx="880" cy="80" r="2" fill="#ffffff"/>
    <circle cx="1040" cy="146" r="1.8" fill="#ffd28d"/>
    <circle cx="975" cy="118" r="1.5" fill="#ffffff"/>
  </g>

  <rect x="84" y="72" width="1032" height="556" rx="30" fill="url(#desk-frame)" stroke="#7f5925" stroke-opacity="0.35" stroke-width="2"/>
  <rect x="112" y="100" width="976" height="500" rx="24" fill="url(#desk-surface)" stroke="#7b5ea7" stroke-opacity="0.24"/>

  <g transform="translate(470 130)" filter="url(#panel-shadow)">
    <path d="M58 42L150 14L250 26L334 74L362 156L336 240L258 292L166 314L86 292L28 238L14 168L30 98Z" fill="url(#map-base)" stroke="#f6dca8" stroke-opacity="0.6" stroke-width="3"/>
    <path d="M50 160C112 130 188 142 242 176C280 200 314 200 354 178" fill="none" stroke="url(#water)" stroke-width="24" stroke-linecap="round" opacity="0.9"/>
    <ellipse cx="220" cy="168" rx="36" ry="28" fill="#4ca7df" opacity="0.88"/>

    <path d="M70 84L140 46L202 64L182 112L118 132L76 112Z" fill="url(#forest)"/>
    <path d="M236 64L298 48L338 88L302 124L244 118L220 92Z" fill="url(#mountain)"/>
    <path d="M274 192L336 184L350 224L304 262L252 252L244 218Z" fill="url(#desert)"/>
    <path d="M108 204L168 188L210 214L188 258L130 266L88 236Z" fill="url(#forest)"/>

    <path d="M258 100L234 140L206 172" fill="none" stroke="#f6e6c8" stroke-width="4" stroke-linecap="round"/>
    <path d="M194 178L168 214L146 236" fill="none" stroke="#f6e6c8" stroke-width="4" stroke-linecap="round"/>

    <path d="M116 108L156 128L188 166L226 196L276 212L316 210" fill="none" stroke="#5a3d23" stroke-width="6" stroke-linecap="round" stroke-linejoin="round" stroke-dasharray="12 12" opacity="0.6"/>

    <g fill="#241a2e" stroke="#f5c981" stroke-width="2.5">
      <rect x="124" y="88" width="18" height="18" rx="2"/>
      <polygon points="122,88 133,76 144,88" fill="#6b21a8"/>

      <rect x="272" y="136" width="18" height="18" rx="2"/>
      <polygon points="270,136 281,124 292,136" fill="#f59e0b"/>

      <rect x="184" y="236" width="18" height="18" rx="2"/>
      <polygon points="182,236 193,224 204,236" fill="#10b981"/>
    </g>

    <g fill="#357f4c" opacity="0.85">
      <circle cx="112" cy="98" r="10"/>
      <circle cx="132" cy="108" r="12"/>
      <circle cx="152" cy="94" r="9"/>
      <circle cx="138" cy="90" r="8"/>
      <circle cx="124" cy="224" r="11"/>
      <circle cx="144" cy="232" r="10"/>
      <circle cx="158" cy="220" r="9"/>
    </g>

    <g fill="#d8e1eb" opacity="0.9">
      <polygon points="252,70 272,32 292,70"/>
      <polygon points="276,76 304,34 332,76"/>
      <polygon points="234,82 254,50 274,82"/>
    </g>

    <g fill="#f59e0b" opacity="0.85" filter="url(#soft-glow)">
      <polygon points="344,56 356,38 368,56 356,74"/>
      <polygon points="366,76 375,62 384,76 375,90"/>
    </g>

    <g fill="#8b5cf6" opacity="0.8" filter="url(#soft-glow)">
      <polygon points="54,56 64,40 74,56 64,72"/>
      <polygon points="72,74 80,62 88,74 80,86"/>
    </g>

    <g fill="#0f1726" opacity="0.35">
      <ellipse cx="188" cy="298" rx="84" ry="22"/>
      <ellipse cx="300" cy="282" rx="64" ry="18"/>
      <ellipse cx="92" cy="248" rx="52" ry="14"/>
    </g>
  </g>

  <path d="M330 508L470 430L760 404L874 450L874 532L330 540Z" fill="#9b7cc8" opacity="0.12"/>

  <g transform="translate(170 406)" filter="url(#panel-shadow)">
    <rect x="0" y="0" width="320" height="176" rx="16" fill="#111827" stroke="#7b5ea7" stroke-opacity="0.55" stroke-width="2"/>
    <rect x="16" y="14" width="288" height="130" rx="12" fill="#1f2937"/>

    <g stroke="#3d5a7a" stroke-width="2" fill="none" opacity="0.8">
      <path d="M40 62H280"/>
      <path d="M52 42H266"/>
      <path d="M52 82H266"/>
      <path d="M78 28V98"/>
      <path d="M108 28V98"/>
      <path d="M138 28V98"/>
      <path d="M168 28V98"/>
      <path d="M198 28V98"/>
      <path d="M228 28V98"/>
    </g>

    <g fill="#f59e0b" opacity="0.9">
      <circle cx="80" cy="70" r="8"/>
      <circle cx="136" cy="58" r="8"/>
      <circle cx="192" cy="74" r="8"/>
      <circle cx="236" cy="50" r="8"/>
    </g>

    <rect x="96" y="146" width="126" height="12" rx="6" fill="#374151"/>
    <circle cx="250" cy="20" r="4" fill="#10b981"/>
    <circle cx="266" cy="20" r="4" fill="#f59e0b"/>
  </g>

  <g transform="translate(916 446)">
    <polygon points="0,-56 48,-28 48,28 0,56 -48,28 -48,-28" fill="#3a4254" stroke="#ffd28d" stroke-opacity="0.6" stroke-width="2"/>
    <polygon points="0,-40 34,-20 34,20 0,40 -34,20 -34,-20" fill="#1f2937"/>
    <circle cx="0" cy="0" r="7" fill="#f59e0b"/>
    <circle cx="-12" cy="-9" r="5" fill="#f8c874"/>
    <circle cx="14" cy="-6" r="5" fill="#f8c874"/>
    <circle cx="-8" cy="16" r="5" fill="#f8c874"/>
    <circle cx="12" cy="13" r="5" fill="#f8c874"/>
  </g>

  <g transform="translate(986 184)">
    <rect x="0" y="0" width="126" height="114" rx="10" fill="#121826" stroke="#7f5925" stroke-opacity="0.5"/>
    <path d="M18 32H108M18 58H94M18 84H76" stroke="#93a1b8" stroke-width="8" stroke-linecap="round"/>
    <circle cx="106" cy="22" r="5" fill="#f59e0b"/>
  </g>

  <g transform="translate(132 146)" filter="url(#soft-glow)">
    <rect x="0" y="38" width="26" height="84" rx="8" fill="#3a2a18"/>
    <path d="M13 28C6 20 8 6 13 0C18 6 20 20 13 28Z" fill="url(#flame)"/>
  </g>

  <g transform="translate(1048 124)" filter="url(#soft-glow)">
    <rect x="0" y="38" width="26" height="84" rx="8" fill="#3a2a18"/>
    <path d="M13 28C6 20 8 6 13 0C18 6 20 20 13 28Z" fill="url(#flame)"/>
  </g>

  <path d="M612 602L622 624L646 628L628 642L632 666L612 654L592 666L596 642L578 628L602 624Z" fill="#f59e0b" opacity="0.75"/>
</svg>
