<svg viewBox="0 0 1200 700" xmlns="http://www.w3.org/2000/svg" role="img" aria-label="Mesa de RPG com mapa e dado">
  <defs>
    <linearGradient id="bg" x1="0" y1="0" x2="1" y2="1">
      <stop offset="0%" stop-color="#1c1e25"/>
      <stop offset="100%" stop-color="#2d1f3b"/>
    </linearGradient>
    <linearGradient id="map" x1="0" y1="0" x2="1" y2="1">
      <stop offset="0%" stop-color="#d7c08f"/>
      <stop offset="100%" stop-color="#bfa06f"/>
    </linearGradient>
  </defs>
  <rect width="1200" height="700" fill="url(#bg)"/>
  <rect x="120" y="120" width="960" height="470" rx="22" fill="#101218" opacity="0.45"/>
  <rect x="190" y="170" width="600" height="350" rx="18" fill="url(#map)" opacity="0.85"/>
  <path d="M230 450L360 360L500 410L620 290L740 360" fill="none" stroke="#3f2f22" stroke-width="14" stroke-linecap="round"/>
  <circle cx="360" cy="360" r="16" fill="#8a2be2"/>
  <circle cx="620" cy="290" r="16" fill="#f59e0b"/>
  <circle cx="500" cy="410" r="16" fill="#10b981"/>
  <g transform="translate(850 230)">
    <polygon points="0,-60 52,-30 52,30 0,60 -52,30 -52,-30" fill="#3b4254"/>
    <polygon points="0,-42 35,-20 35,20 0,42 -35,20 -35,-20" fill="#242936"/>
    <circle cx="0" cy="0" r="8" fill="#f59e0b"/>
  </g>
  <rect x="820" y="390" width="230" height="120" rx="10" fill="#161a24" opacity="0.8"/>
  <path d="M850 430h170M850 460h120" stroke="#8e99b0" stroke-width="10" stroke-linecap="round"/>
</svg>
