<svg width="160" height="160" viewBox="0 0 160 160" xmlns="http://www.w3.org/2000/svg" role="img" aria-label="Runic pattern">
  <rect width="160" height="160" fill="none"/>
  <g fill="none" stroke="#f59e0b" stroke-opacity="0.18" stroke-width="1.8" stroke-linecap="round" stroke-linejoin="round">
    <path d="M20 24h16l-8 14z"/>
    <path d="M80 16l10 10-10 10-10-10z"/>
    <path d="M132 28l8 14h-16z"/>
    <path d="M22 82h14M29 75v14"/>
    <path d="M74 76h12l-6 10z"/>
    <path d="M126 74l12 12-12 12-12-12z"/>
    <path d="M24 132l10-10 10 10-10 10z"/>
    <path d="M80 122l8 14h-16z"/>
    <path d="M132 128h14M139 121v14"/>
  </g>
</svg>
