<svg viewBox="0 0 64 64" xmlns="http://www.w3.org/2000/svg" role="img" aria-label="Puzzle icon">
  <path fill="none" stroke="currentColor" stroke-linecap="round" stroke-linejoin="round" stroke-width="4" d="M16 32h8a4 4 0 0 0 4-4v-8a4 4 0 0 1 4-4h8a4 4 0 0 1 4 4v8a4 4 0 0 0 4 4h8"/>
  <path fill="none" stroke="currentColor" stroke-linecap="round" stroke-linejoin="round" stroke-width="4" d="M48 32v8a4 4 0 0 1-4 4h-8a4 4 0 0 0-4 4v8"/>
  <path fill="none" stroke="currentColor" stroke-linecap="round" stroke-linejoin="round" stroke-width="4" d="M16 32v-8a4 4 0 0 1 4-4h8a4 4 0 0 0 4-4v-8"/>
</svg>
